<svg xmlns="http://www.w3.org/2000/svg" xmlns:xlink="http://www.w3.org/1999/xlink" version="1.1" x="0px" y="0px" viewBox="0 0 50 62.5" enable-background="new 0 0 50 50" xml:space="preserve"><g><path d="M14.4,35.8L12.9,35l2.4-4.3l-5.7,1.8c-1.9,0.6-3.1,2.3-3.1,4.3V49h14.7l-9-11.1L14.4,35.8z"/><path d="M40.4,32.4l-5.9-1.8L37,35l-1.5,0.8l2.3,2.1l-9,11.1h14.8V36.7C43.5,34.7,42.2,33,40.4,32.4z"/><path d="M34.4,15.1c-2.9,3.2-15.6,3.3-18.5,0c-2.2,0.7-0.4,7.2,1.5,5.5c2,8.1,13.5,8,15.5,0C34.7,22.4,36.7,15.8,34.4,15.1z"/><path d="M33.6,14.5c-5.3-2.3-11.3-2.4-16.8,0C19.3,17.2,31,17.2,33.6,14.5z"/><path d="M14.7,9c0.6-0.2,4.3-2.1,10.5-2.1c5.7,0,10.1,2,10.4,2.1c0.1-0.1,2.2-1,2.2-2.9c0-6.7-25.3-6.7-25.3,0   C12.5,7.8,14.5,8.8,14.7,9z M25.2,2.8c0.9,0,1.6,0.7,1.6,1.6c0,0.9-0.7,1.6-1.6,1.6c-0.9,0-1.6-0.7-1.6-1.6   C23.6,3.5,24.3,2.8,25.2,2.8z"/><path d="M34.3,11.5c0.1-0.6,0.2-1.2,0.2-1.9c-6-2.3-12.7-2.3-18.7,0c0.1,0.6,0.1,1.3,0.2,1.9c0.4-0.1,0.7-0.2,1.1-0.4   c0.1,0.4,0.3,0.9,0.4,1.3c-0.4,0.1-0.9,0.3-1.3,0.4c0,0.2,0.1,0.5,0.1,0.7c5.6-2.5,12.1-2.5,17.7,0c0-0.2,0.1-0.5,0.1-0.7   c-0.4-0.2-0.9-0.3-1.3-0.4c0.1-0.4,0.3-0.9,0.4-1.3C33.6,11.3,34,11.4,34.3,11.5z M31.8,10.8c-0.1,0.4-0.2,0.9-0.3,1.3   c-0.5-0.1-0.9-0.2-1.4-0.3c0.1-0.5,0.2-0.9,0.3-1.4c-0.5-0.1-1-0.2-1.5-0.2c-0.1,0.5-0.1,0.9-0.2,1.4c-0.5-0.1-0.9-0.1-1.4-0.2   c0-0.5,0.1-0.9,0.1-1.4c-0.5,0-1-0.1-1.5-0.1c0,0.5,0,0.9,0,1.4c-0.5,0-0.9,0-1.4,0c0-0.5,0-0.9,0-1.4c-0.5,0-1,0-1.5,0.1   c0,0.5,0.1,0.9,0.1,1.4c-0.5,0-0.9,0.1-1.4,0.2c-0.1-0.5-0.1-0.9-0.2-1.4c-0.5,0.1-1,0.1-1.5,0.2c0.1,0.5,0.2,0.9,0.3,1.4   c-0.5,0.1-0.9,0.2-1.4,0.3c-0.1-0.4-0.2-0.9-0.3-1.3c-0.5,0.1-1,0.3-1.4,0.4c-0.1-0.4-0.3-0.9-0.4-1.3c0.5-0.2,1-0.3,1.5-0.4   c0.1,0.4,0.2,0.9,0.3,1.3c0.5-0.1,1-0.2,1.5-0.3c-0.1-0.5-0.2-0.9-0.3-1.4c0.5-0.1,1-0.2,1.5-0.3c0.1,0.5,0.1,0.9,0.2,1.4   c0.5-0.1,1-0.1,1.5-0.2c0-0.5-0.1-0.9-0.1-1.4c0.5,0,1-0.1,1.6-0.1c0,0.5,0,0.9,0,1.4c0.5,0,1,0,1.5,0c0-0.5,0-0.9,0-1.4   c0.5,0,1,0,1.6,0.1c0,0.5-0.1,0.9-0.1,1.4c0.5,0,1,0.1,1.5,0.2c0.1-0.5,0.1-0.9,0.2-1.4c0.5,0.1,1,0.2,1.5,0.3   c-0.1,0.5-0.2,0.9-0.3,1.4C30.8,10.5,31.3,10.6,31.8,10.8c0.1-0.4,0.2-0.9,0.3-1.3c0.5,0.1,1,0.3,1.5,0.4c-0.1,0.4-0.3,0.9-0.4,1.3   C32.8,11,32.3,10.9,31.8,10.8z"/><polygon points="25,5.3 25.3,5.3 25.3,3.7 25.9,3.7 25.9,3.4 24.4,3.4 24.4,3.7 25,3.7  "/><polygon points="33.8,35.6 35.6,34.6 33.1,30.2 26.1,49 27.5,49 36.4,38  "/><polygon points="14.3,34.6 16.1,35.6 13.5,38 22.4,49 23.8,49 16.8,30.2  "/><path d="M17.7,29.9l4.1,10.9c1-8,0.5-6.3,1-7.1L19,29.5L17.7,29.9z"/><path d="M28.4,39.9l3.7-10.1l-0.8-0.3l-3.8,4.2C28,34.4,27.6,33.9,28.4,39.9z"/><polygon points="25.2,30.1 21.2,27.5 20.1,29.3 23.4,32.9  "/><polygon points="30.3,29.3 29.1,27.5 25.2,30.1 27,32.9  "/><path d="M26.8,34.4c-0.7-1.2-1.6-2.5-1.6-2.5c-0.1,0.1-1.5,2.3-1.6,2.5c-0.5,4.4-0.8,7-1,8.5l2.3,6.1h0.2l2.6-7L26.8,34.4z"/></g>
</svg>